<svg xmlns="http://www.w3.org/2000/svg" xmlns:xlink="http://www.w3.org/1999/xlink" width="700" height="700" viewBox="0 0 700 700">
  <defs>
    <clipPath id="clip-logo">
      <rect width="700" height="700"/>
    </clipPath>
  </defs>
  <g id="logo" clip-path="url(#clip-logo)">
    <circle id="logo-entwurf" cx="350" cy="350" r="350" fill="#97b89a"/>
    <path id="Pfad_5" data-name="Pfad 5" d="M350,167.395c189.818,0,340.435,114.443,349.85,172.424.1,3.284.15,6.7.15,10.181,0,193.3-156.7,350-350,350S0,543.3,0,350c0-5.219.114-10.289.343-15.264C5.483,271.59,161.919,167.395,350,167.395Z" fill="#7a977d"/>
    <path id="Pfad_6" data-name="Pfad 6" d="M350,379.726c189.818,0,327.846,110.461,289.764,166.644A349.519,349.519,0,0,1,350,700c-124.677,0-229.629-55.3-291.737-153.63C24.248,492.519,161.919,379.726,350,379.726Z" fill="#556b57"/>
  </g>
</svg>
